<?xml version="1.0" encoding="UTF-8"?>
<svg width="96px" height="90px" viewBox="0 0 96 90" version="1.1" xmlns="http://www.w3.org/2000/svg" xmlns:xlink="http://www.w3.org/1999/xlink">
    <!-- Generator: Sketch 49.3 (51167) - http://www.bohemiancoding.com/sketch -->
    <title>nintendo switch</title>
    <desc>Created with Sketch.</desc>
    <defs>
        <rect id="path-1" x="0" y="0" width="84" height="78" rx="5"></rect>
        <filter x="-10.7%" y="-11.5%" width="121.4%" height="123.1%" filterUnits="objectBoundingBox" id="filter-2">
            <feOffset dx="0" dy="0" in="SourceAlpha" result="shadowOffsetOuter1"></feOffset>
            <feGaussianBlur stdDeviation="3" in="shadowOffsetOuter1" result="shadowBlurOuter1"></feGaussianBlur>
            <feColorMatrix values="0 0 0 0 0   0 0 0 0 0   0 0 0 0 0  0 0 0 0.5 0" type="matrix" in="shadowBlurOuter1"></feColorMatrix>
        </filter>
        <path d="M9.99235509,4.82191665 C7.37965767,5.27764582 5.276612,7.15752863 4.61465055,9.62985936 C4.37446985,10.5242278 4.35689565,11.0483164 4.38618598,17.9753997 C4.39790211,24.3328216 4.40376018,24.4809336 4.51506343,24.976539 C5.11844422,27.6254648 7.05160598,29.5110443 9.80489698,30.1319752 C10.162239,30.2117278 10.6191681,30.2288177 13.5599172,30.2402109 C16.6002535,30.2629974 16.916589,30.2573008 16.998602,30.1775482 C17.0806149,30.0977956 17.0864729,29.0781015 17.0864729,17.5196706 C17.0864729,8.94626561 17.0688987,4.91306248 17.0337503,4.83900649 C16.9810278,4.74216405 16.8872987,4.73646743 13.7005108,4.74216405 C11.1112457,4.74786066 10.3321229,4.7649505 9.99235509,4.82191665 Z M14.9072724,17.5025807 L14.9072724,28.2065195 L12.6929235,28.1780364 C10.6543165,28.15525 10.4375681,28.1438568 10.0275035,28.0470143 C8.27594176,27.608375 6.98130919,26.2981536 6.61225104,24.5891693 C6.49508972,24.0536875 6.49508972,10.9115976 6.60639297,10.3875091 C6.93444466,8.90069269 7.9947546,7.67022394 9.41826462,7.11765233 C10.1329487,6.83851821 10.4668584,6.80433853 12.7925106,6.79864191 L14.8955563,6.7929453 L14.8955563,17.5025807 L14.9072724,17.5025807 Z M10.4610004,10.0286224 C10.1212325,10.0912851 9.59986467,10.3476328 9.3186775,10.581194 C8.75044511,11.0597096 8.46339987,11.7433034 8.5102644,12.546526 C8.53369667,12.9623789 8.55712893,13.0763112 8.73287091,13.4124114 C8.99062581,13.9251068 9.3714001,14.3010833 9.89862603,14.5517344 C10.2618261,14.7283294 10.3555552,14.7454193 10.8300585,14.7625091 C11.2576973,14.7795989 11.410007,14.7625091 11.6970523,14.6656667 C12.8745235,14.2782969 13.5892076,13.167457 13.3841753,12.0224375 C13.1557107,10.6723398 11.8259297,9.76088149 10.4610004,10.0286224 Z M19.7284607,4.77064712 C19.7050284,4.78773696 19.6933123,10.5128346 19.6933123,17.5025807 C19.6933123,29.026832 19.6991704,30.194638 19.7811833,30.2288177 C19.9276349,30.2800872 24.1454424,30.2629974 24.6668103,30.2060312 C26.8753011,29.9610768 28.8260371,28.6565521 29.880489,26.7197031 C30.0152245,26.4690521 30.1968245,26.0531992 30.2905536,25.7968515 C30.6303214,24.8056406 30.6244633,25.0676849 30.6244633,17.4740976 C30.6244633,11.4128997 30.6127472,10.507138 30.5365923,10.1254648 C29.9976503,7.37399998 27.8360239,5.29473566 25.00072,4.82191665 C24.6199457,4.75925389 24.0341392,4.74216405 22.1419839,4.74216405 C20.8297771,4.73646743 19.7460349,4.75355728 19.7284607,4.77064712 Z M25.533804,16.2835052 C26.3832236,16.4999765 27.0744754,17.1266042 27.3615206,17.9298268 C27.5431207,18.4254323 27.5372626,19.1545989 27.3556625,19.6103281 C27.0217528,20.4477305 26.3715075,21.0344818 25.533804,21.2509531 C24.1747327,21.59275 22.7277904,20.7952239 22.3353,19.4850026 C22.2181387,19.0862396 22.2239968,18.4083424 22.3587323,17.9924896 C22.7629388,16.6993581 24.1747327,15.9360117 25.533804,16.2835052 Z" id="path-3"></path>
        <linearGradient x1="50%" y1="0%" x2="50%" y2="100%" id="linearGradient-5">
            <stop stop-color="#F7931E" offset="0%"></stop>
            <stop stop-color="#D4145A" offset="100%"></stop>
        </linearGradient>
    </defs>
    <g id="Symbols" stroke="none" stroke-width="1" fill="none" fill-rule="evenodd">
        <g id="informations_contact-message-d'erreur" transform="translate(-108.000000, -600.000000)">
            <g id="informations">
                <g id="CONSOLES" transform="translate(20.000000, 577.000000)">
                    <g id="nintendo-switch" transform="translate(94.000000, 29.000000)">
                        <g id="background">
                            <use fill="black" fill-opacity="1" filter="url(#filter-2)" xlink:href="#path-1"></use>
                            <use fill="#2C2C2C" fill-rule="evenodd" xlink:href="#path-1"></use>
                        </g>
                        <text id="Nintendo-Switch" font-family="Lato-Bold, Lato" font-size="12" font-weight="bold" fill="#FFFFFF">
                            <tspan x="17.656" y="54">Nintendo </tspan>
                            <tspan x="24.814" y="69">Switch</tspan>
                        </text>
                        <g id="Icons/Brands/nintendo-switch" transform="translate(25.000000, 7.000000)">
                            <mask id="mask-4" fill="white">
                                <use xlink:href="#path-3"></use>
                            </mask>
                            <use id="nintendo-switch" fill="#000000" fill-rule="nonzero" xlink:href="#path-3"></use>
                            <g id="Orange-pink" mask="url(#mask-4)" fill="url(#linearGradient-5)" fill-rule="evenodd">
                                <rect id="Rectangle" x="0" y="0" width="35" height="35"></rect>
                            </g>
                        </g>
                    </g>
                </g>
            </g>
        </g>
    </g>
</svg>